<?xml version="1.0" encoding="utf-8"?>
<svg xmlns="http://www.w3.org/2000/svg" version="1.0" width="441.000000pt" height="315.000000pt" viewBox="0 0 441.000000 315.000000" preserveAspectRatio="xMidYMid meet">
  <g transform="matrix(0.0931, 0, 0, -0.067015, 4.415843, 235.804214)" fill="#000000" stroke="none" style="">
    <path d="M640 1355 l0 -1045 230 0 230 0 0 545 c0 300 3 545 8 545 4 0 25 -26 47 -58 61 -89 601 -847 673 -944 l64 -88 274 0 c151 0 274 3 274 6 0 3 -13 22 -29 42 -33 44 -297 408 -362 502 -25 36 -127 179 -227 317 -101 139 -185 260 -188 268 -4 10 16 42 53 88 33 39 133 167 223 282 163 209 247 316 387 493 l74 92 -278 0 -278 0 -150 -196 c-284 -372 -532 -689 -549 -703 -15 -12 -16 20 -16 443 l0 456 -230 0 -230 0 0 -1045z" style="fill-rule: evenodd; fill-opacity: 0.99; paint-order: fill; fill: rgb(249, 249, 249);"/>
    <path d="M2448 2118 c-119 -156 -287 -373 -372 -483 -86 -110 -156 -206 -156 -213 0 -7 53 -87 118 -177 134 -188 304 -427 516 -728 l147 -207 172 0 c379 0 603 76 774 264 101 110 173 259 215 446 21 95 23 129 23 355 0 272 -8 334 -65 503 -93 272 -277 430 -585 502 -28 7 -165 14 -310 17 l-260 4 -217 -283z m769 -191 c151 -78 213 -238 213 -554 -1 -267 -45 -428 -147 -525 -75 -72 -170 -101 -305 -96 l-72 3 -74 110 c-41 61 -142 204 -223 319 -82 115 -149 215 -149 222 0 7 53 80 118 161 65 81 162 203 215 270 l97 122 73 3 c118 5 197 -6 254 -35z" style="fill-rule: evenodd; fill-opacity: 0.99; paint-order: fill; fill: rgb(249, 249, 249);"/>
  </g>
</svg>